#!OML:ASF E:\emotionWalksFemale\Project 1\Capture day 1\Session 1\Female1.ASF
:FULLY-SPECIFIED
:DEGREES
809
root -3.19614 15.3794 -31.3859 173.479 37.2259 171.565
lowerback 7.2866 1.49506 -2.39879
upperback -3.53163 1.68719 -1.68221
thorax -7.83129 0.924567 -0.663882
lowerneck -5.49459 -5.71348 -11.8394
upperneck 11.425 -8.21156 16.7696
head 5.5182 -3.40272 6.75727
rclavicle 6.96243e-014 -1.31198e-014
rhumerus -46.8396 12.9986 -85.427
rradius 46.8271
rwrist 8.22341
rhand -3.37037 -51.7271
rfingers 7.12502
rthumb 22.3585 -80.4533
lclavicle 6.96243e-014 -1.31198e-014
lhumerus -49.4583 11.1455 58.3766
lradius 33.4968
lwrist -17.7918
lhand -4.3824 -28.3534
lfingers 7.12502
lthumb 21.3867 0.486322
rfemur -8.25854 4.37737 19.6825
rtibia 67.3043
rfoot 8.08648 5.95812
rtoes -2.32461
lfemur -7.84055 -19.1765 -25.4311
ltibia 19.1462
lfoot -11.1099 11.3982
ltoes -48.0877
810
root -3.14653 15.3941 -31.4757 173.443 38.014 171.73
lowerback 7.5552 1.41425 -2.32796
upperback -3.55331 1.58099 -1.53244
thorax -8.01194 0.871204 -0.53914
lowerneck -5.53819 -5.59058 -11.5297
upperneck 11.5223 -8.05319 16.5433
head 5.50843 -3.32214 6.64187
rclavicle 6.22196e-014 -6.75868e-015
rhumerus -46.9771 13.233 -85.4094
rradius 47.0672
rwrist 8.15867
rhand -3.39416 -52.3465
rfingers 7.12502
rthumb 22.3356 -81.0755
lclavicle 6.22196e-014 -6.75868e-015
lhumerus -49.3792 11.4706 58.3662
lradius 34.4919
lwrist -18.3364
lhand -5.173 -28.4987
lfingers 7.12502
lthumb 20.6272 0.42522
rfemur -9.95487 4.00844 19.8609
rtibia 68.6812
rfoot 5.30539 4.87993
rtoes -4.98315
lfemur -7.04908 -19.1524 -25.4894
ltibia 18.9521
lfoot -11.167 12.2833
ltoes -47.8027
811
root -3.09391 15.4069 -31.5691 173.315 38.6961 171.775
lowerback 7.70925 1.34275 -2.33154
upperback -3.54248 1.48442 -1.39975
thorax -8.09255 0.826204 -0.386988
lowerneck -5.22678 -5.27165 -11.9505
upperneck 11.431 -7.63257 16.968
head 5.39438 -3.12675 6.90089
rclavicle -3.42407e-014 1.07344e-014
rhumerus -47.2409 13.6106 -85.3827
rradius 47.3484
rwrist 7.85049
rhand -3.75116 -52.9237
rfingers 7.12502
rthumb 21.9929 -81.6933
lclavicle -3.42407e-014 1.07344e-014
lhumerus -48.8659 11.3764 58.7029
lradius 34.7715
lwrist -18.3023
lhand -5.24174 -28.2409
lfingers 7.12502
lthumb 20.5611 0.690214
rfemur -11.5274 3.44941 19.9184
rtibia 69.7328
rfoot 2.618 3.76141
rtoes -9.96135
lfemur -6.21976 -18.8514 -25.6575
ltibia 18.6979
lfoot -11.5575 12.5742
ltoes -44.8462
812
root -3.04162 15.4108 -31.6643 173.303 39.2561 171.864
lowerback 7.64771 1.17219 -2.29358
upperback -3.57607 1.26766 -1.28637
thorax -8.09139 0.721167 -0.255791
lowerneck -5.16676 -5.22074 -11.4916
upperneck 11.5948 -7.56372 16.3659
head 5.38108 -3.11072 6.62639
rclavicle 9.30312e-014 -1.15295e-014
rhumerus -47.5428 13.9859 -85.4792
rradius 47.4127
rwrist 7.59246
rhand -4.19057 -52.8991
rfingers 7.12502
rthumb 21.571 -81.7178
lclavicle 9.30312e-014 -1.15295e-014
lhumerus -47.6563 10.426 59.4361
lradius 33.5679
lwrist -17.1482
lhand -5.9624 -28.6303
lfingers 7.12502
lthumb 19.8685 0.374095
rfemur -12.9954 2.6388 19.9467
rtibia 70.5303
rfoot 0.380501 2.7457
rtoes -11.6115
lfemur -5.55234 -18.3906 -25.8001
ltibia 18.5639
lfoot -12.2285 12.5683
ltoes -38.2336
813
root -2.98121 15.4185 -31.7629 173.316 39.9325 171.989
lowerback 7.48621 1.01837 -2.31596
upperback -3.6369 1.0732 -1.13531
thorax -8.06311 0.631839 -0.0530661
lowerneck -4.84889 -5.02022 -11.2217
upperneck 11.6799 -7.318 16.2056
head 5.29732 -2.99703 6.55359
rclavicle -1.08686e-013 -5.56597e-015
rhumerus -47.831 14.2918 -85.5844
rradius 47.2907
rwrist 7.42545
rhand -4.83926 -52.5328
rfingers 7.12502
rthumb 20.9478 -81.4217
lclavicle -1.08686e-013 -5.56597e-015
lhumerus -47.2883 10.4895 59.5282
lradius 33.7241
lwrist -16.9799
lhand -6.62095 -29.1575
lfingers 7.12502
lthumb 19.2353 -0.08873
rfemur -14.3175 1.97601 20.0592
rtibia 71.0414
rfoot -1.42553 1.67912
rtoes -11.1621
lfemur -4.80296 -18.1697 -25.9309
ltibia 18.4015
lfoot -12.4071 13.3954
ltoes -39.5778
814
root -2.91538 15.4345 -31.8551 173.277 40.5561 172.142
lowerback 7.52975 0.948235 -2.34801
upperback -3.6563 0.983376 -0.962829
thorax -8.11145 0.593901 0.15889
lowerneck -4.60454 -4.93454 -11.226
upperneck 11.7478 -7.225 16.2706
head 5.26321 -2.95378 6.58966
rclavicle -1.51225e-013 6.36111e-015
rhumerus -47.9893 14.3482 -85.4145
rradius 47.0065
rwrist 7.36498
rhand -5.21069 -52.1588
rfingers 7.12502
rthumb 20.591 -81.0867
lclavicle -1.51225e-013 6.36111e-015
lhumerus -46.7463 10.5762 59.8286
lradius 34.0116
lwrist -16.6589
lhand -7.31868 -29.398
lfingers 7.12502
lthumb 18.5643 -0.26385
rfemur -15.5656 1.36083 20.2975
rtibia 71.3323
rfoot -3.08312 0.637777
rtoes -10.8234
lfemur -3.99068 -18.2942 -25.996
ltibia 18.1818
lfoot -13.1643 13.758
ltoes -36.568
815
root -2.85344 15.4463 -31.9442 173.124 41.0095 172.096
lowerback 7.64393 0.917585 -2.40283
upperback -3.65889 0.93614 -0.887846
thorax -8.18222 0.575682 0.273713
lowerneck -4.47798 -4.96684 -11.3934
upperneck 11.8147 -7.28783 16.4522
head 5.28316 -2.98263 6.67875
rclavicle -1.08089e-013 -6.75868e-015
rhumerus -48.2007 14.2064 -85.0744
rradius 46.8467
rwrist 7.3927
rhand -4.91672 -52.1525
rfingers 7.12502
rthumb 20.8734 -81.0496
lclavicle -1.08089e-013 -6.75868e-015
lhumerus -45.9586 10.3542 60.3536
lradius 34.3864
lwrist -16.0138
lhand -8.14245 -29.5562
lfingers 7.12502
lthumb 17.7718 -0.348285
rfemur -16.8096 0.638953 20.3483
rtibia 71.4776
rfoot -4.73833 -0.076857
rtoes -9.35539
lfemur -3.20845 -18.3799 -26.235
ltibia 17.9299
lfoot -13.7067 13.9638
ltoes -33.9481
816
root -2.79379 15.4497 -32.0322 172.927 41.2956 171.823
lowerback 7.69949 0.827493 -2.66984
upperback -3.70454 0.78675 -0.848556
thorax -8.2657 0.519855 0.48548
lowerneck -4.51196 -5.0088 -11.3419
upperneck 11.9796 -7.35111 16.3302
head 5.34222 -3.01266 6.62578
rclavicle -5.45167e-014 -3.97569e-015
rhumerus -48.599 14.2995 -84.8485
rradius 47.0542
rwrist 7.25284
rhand -4.57713 -52.604
rfingers 7.12502
rthumb 21.1997 -81.4648
lclavicle -5.45167e-014 -3.97569e-015
lhumerus -45.2034 10.0225 60.9152
lradius 34.7633
lwrist -15.2946
lhand -9.19897 -29.891
lfingers 7.12502
lthumb 16.7549 -0.593977
rfemur -18.1611 -0.379495 20.1301
rtibia 71.4847
rfoot -6.39482 -0.617821
rtoes -9.9787
lfemur -2.59831 -18.3232 -26.6832
ltibia 17.7749
lfoot -12.4295 15.093
ltoes -44.6698
817
root -2.73313 15.4452 -32.1195 172.807 41.6834 171.57
lowerback 7.70327 0.76108 -2.96262
upperback -3.75459 0.668616 -0.801778
thorax -8.32396 0.481279 0.715977
lowerneck -4.72417 -5.08627 -11.0152
upperneck 12.1811 -7.4501 15.9283
head 5.42857 -3.05791 6.42473
rclavicle 1.27719e-014 -1.86858e-014
rhumerus -48.9678 14.4255 -84.6747
rradius 47.3321
rwrist 7.18653
rhand -4.67502 -52.7291
rfingers 7.12502
rthumb 21.1056 -81.6004
lclavicle 1.27719e-014 -1.86858e-014
lhumerus -44.3976 9.77227 61.4461
lradius 35.096
lwrist -14.5156
lhand -10.0785 -30.2287
lfingers 7.12502
lthumb 15.9081 -0.862087
rfemur -19.5721 -1.32562 19.9695
rtibia 71.2697
rfoot -7.57737 -1.46726
rtoes -11.624
lfemur -2.00853 -18.3666 -27.0919
ltibia 17.5296
lfoot -13.0232 15.5068
ltoes -41.6976
818
root -2.67026 15.4343 -32.2081 172.574 42.2385 171.251
lowerback 7.65304 0.757316 -3.23891
upperback -3.73388 0.635739 -0.801332
thorax -8.27571 0.479875 0.877203
lowerneck -4.83603 -5.10639 -10.8971
upperneck 12.2471 -7.4834 15.8816
head 5.46713 -3.06544 6.38479
rclavicle 7.48424e-014 2.26615e-014
rhumerus -49.0457 14.1984 -84.3862
rradius 47.2301
rwrist 7.64968
rhand -5.06092 -51.8072
rfingers 7.12502
rthumb 20.7349 -80.7194
lclavicle 7.48424e-014 2.26615e-014
lhumerus -43.5596 9.60196 61.9119
lradius 35.5894
lwrist -13.5692
lhand -10.4676 -30.3831
lfingers 7.12502
lthumb 15.5334 -0.986984
rfemur -20.7871 -1.80006 19.8365
rtibia 70.8367
rfoot -8.36218 -2.59411
rtoes -9.86256
lfemur -1.33121 -18.3519 -27.5496
ltibia 17.3012
lfoot -13.5943 15.882
ltoes -39.3036
819
root -2.60666 15.4403 -32.2837 172.361 42.5722 171.03
lowerback 7.81027 0.660706 -3.57781
upperback -3.71175 0.464784 -0.74127
thorax -8.34207 0.416924 1.15508
lowerneck -4.7743 -5.03372 -11.113
upperneck 12.1803 -7.39785 16.1922
head 5.44288 -3.01926 6.53412
rclavicle -1.01728e-013 1.07344e-014
rhumerus -48.9981 13.6092 -83.8625
rradius 47.0265
rwrist 8.40333
rhand -4.72979 -51.5245
rfingers 7.12502
rthumb 21.053 -80.4017
lclavicle -1.01728e-013 1.07344e-014
lhumerus -42.8081 9.6586 62.2831
lradius 36.2658
lwrist -12.7561
lhand -10.6229 -30.5611
lfingers 7.12502
lthumb 15.3838 -1.15348
rfemur -21.9113 -2.83198 19.941
rtibia 70.1387
rfoot -9.17779 -4.07454
rtoes -15.8255
lfemur -0.771342 -18.3109 -27.9041
ltibia 17.2322
lfoot -13.8312 16.2749
ltoes -39.4479
820
root -2.53884 15.4381 -32.3607 172.35 42.9203 171.102
lowerback 7.89307 0.550957 -3.67756
upperback -3.68168 0.310296 -0.603742
thorax -8.35251 0.349754 1.3798
lowerneck -4.7042 -4.96725 -11.6095
upperneck 12.0943 -7.32755 16.8025
head 5.43463 -2.97535 6.83339
rclavicle -6.20705e-014 -1.59028e-014
rhumerus -48.9886 13.0047 -83.2648
rradius 46.7833
rwrist 8.86703
rhand -3.80748 -52.4035
rfingers 7.12502
rthumb 21.9388 -81.1795
lclavicle -6.20705e-014 -1.59028e-014
lhumerus -42.023 9.69766 62.692
lradius 36.8406
lwrist -11.9532
lhand -10.6838 -30.7378
lfingers 7.12502
lthumb 15.3251 -1.32564
rfemur -22.9757 -3.38924 20.1245
rtibia 69.3558
rfoot -10.4107 -4.83997
rtoes -9.86344
lfemur -0.243035 -18.6151 -28.1023
ltibia 17.3599
lfoot -13.8898 17.2109
ltoes -40.8963
821
root -2.48513 15.4196 -32.4492 172.166 43.3393 170.93
lowerback 7.9824 0.479499 -3.58781
upperback -3.64054 0.218993 -0.613881
thorax -8.35428 0.298774 1.33241
lowerneck -4.87613 -5.09057 -11.1433
upperneck 12.0966 -7.46782 16.1682
head 5.44604 -3.06002 6.52156
rclavicle -1.55549e-014 -1.35174e-014
rhumerus -48.5504 12.6744 -82.9357
rradius 45.6445
rwrist 9.05861
rhand -3.72385 -52.3871
rfingers 7.12502
rthumb 22.0191 -81.1536
lclavicle -1.55549e-014 -1.35174e-014
lhumerus -41.1646 9.49804 63.2058
lradius 37.3198
lwrist -10.8072
lhand -11.1388 -30.9344
lfingers 7.12502
lthumb 14.8867 -1.48923
rfemur -24.0557 -4.02966 20.0374
rtibia 68.3895
rfoot -11.3417 -5.46092
rtoes -5.61654
lfemur 0.305657 -19.0663 -28.6024
ltibia 17.5394
lfoot -14.0605 18.4173
ltoes -41.6747
822
root -2.42681 15.4034 -32.5129 172.34 43.5377 170.89
lowerback 8.01223 0.34418 -3.68785
upperback -3.67313 0.024848 -0.609774
thorax -8.3977 0.211212 1.42206
lowerneck -4.78297 -5.0465 -11.2933
upperneck 11.8801 -7.41538 16.4663
head 5.37274 -3.03426 6.65046
rclavicle -3.62285e-014 -4.77083e-015
rhumerus -47.8252 12.4871 -82.8477
rradius 44.0738
rwrist 9.16044
rhand -4.12695 -51.8069
rfingers 7.12502
rthumb 21.632 -80.6185
lclavicle -3.62285e-014 -4.77083e-015
lhumerus -40.2345 9.22688 63.6603
lradius 37.92
lwrist -9.46391
lhand -11.6948 -31.0422
lfingers 7.12502
lthumb 14.3511 -1.55823
rfemur -25.3029 -4.64178 20.2755
rtibia 67.1721
rfoot -11.8547 -6.74818
rtoes -5.73671
lfemur 0.451118 -19.0153 -28.6928
ltibia 17.634
lfoot -14.5865 18.8011
ltoes -41.0635
